<mxfile host="app.diagrams.net" modified="2024-05-21T05:24:12.525Z" agent="Mozilla/5.0 (Windows NT 10.0; Win64; x64) AppleWebKit/537.36 (KHTML, like Gecko) Chrome/124.0.0.0 Safari/537.36" etag="okjRW5UkIaCQRYxza2Vh" version="24.4.4" type="github">
  <diagram name="Page-1" id="4VRR59aaVPMUUvs4yNJf">
    <mxGraphModel dx="880" dy="434" grid="1" gridSize="10" guides="1" tooltips="1" connect="1" arrows="1" fold="1" page="1" pageScale="1" pageWidth="850" pageHeight="1100" math="0" shadow="0">
      <root>
        <mxCell id="0" />
        <mxCell id="1" parent="0" />
        <mxCell id="l9jkZKj2UulHnHtsVqsz-1" value="" style="swimlane;childLayout=stackLayout;resizeParent=1;resizeParentMax=0;startSize=20;html=1;" parent="1" vertex="1">
          <mxGeometry x="200" y="20" width="480" height="420" as="geometry" />
        </mxCell>
        <mxCell id="l9jkZKj2UulHnHtsVqsz-2" value="user" style="swimlane;startSize=20;html=1;" parent="l9jkZKj2UulHnHtsVqsz-1" vertex="1">
          <mxGeometry y="20" width="240" height="400" as="geometry" />
        </mxCell>
        <mxCell id="l9jkZKj2UulHnHtsVqsz-8" value="pilih menu sign in" style="rounded=1;whiteSpace=wrap;html=1;arcSize=40;" parent="l9jkZKj2UulHnHtsVqsz-2" vertex="1">
          <mxGeometry x="54.999999999999545" y="90" width="120" height="40" as="geometry" />
        </mxCell>
        <mxCell id="l9jkZKj2UulHnHtsVqsz-20" value="" style="edgeStyle=orthogonalEdgeStyle;rounded=0;orthogonalLoop=1;jettySize=auto;html=1;" parent="l9jkZKj2UulHnHtsVqsz-2" source="l9jkZKj2UulHnHtsVqsz-5" edge="1">
          <mxGeometry relative="1" as="geometry">
            <mxPoint x="115" y="90" as="targetPoint" />
          </mxGeometry>
        </mxCell>
        <mxCell id="l9jkZKj2UulHnHtsVqsz-5" value="" style="ellipse;html=1;shape=startState;fillColor=#000000;strokeColor=#ff0000;" parent="l9jkZKj2UulHnHtsVqsz-2" vertex="1">
          <mxGeometry x="99.99999999999955" y="30" width="30" height="30" as="geometry" />
        </mxCell>
        <mxCell id="l9jkZKj2UulHnHtsVqsz-13" value="isi form daftar akun" style="rounded=1;whiteSpace=wrap;html=1;arcSize=40;" parent="l9jkZKj2UulHnHtsVqsz-2" vertex="1">
          <mxGeometry x="54.999999999999545" y="170" width="120" height="40" as="geometry" />
        </mxCell>
        <mxCell id="l9jkZKj2UulHnHtsVqsz-28" value="" style="edgeStyle=orthogonalEdgeStyle;rounded=0;orthogonalLoop=1;jettySize=auto;html=1;" parent="l9jkZKj2UulHnHtsVqsz-2" source="l9jkZKj2UulHnHtsVqsz-17" target="l9jkZKj2UulHnHtsVqsz-19" edge="1">
          <mxGeometry relative="1" as="geometry" />
        </mxCell>
        <mxCell id="l9jkZKj2UulHnHtsVqsz-17" value="konfirmsi mail" style="rounded=1;whiteSpace=wrap;html=1;arcSize=40;" parent="l9jkZKj2UulHnHtsVqsz-2" vertex="1">
          <mxGeometry x="55" y="250" width="120" height="40" as="geometry" />
        </mxCell>
        <mxCell id="l9jkZKj2UulHnHtsVqsz-19" value="" style="ellipse;html=1;shape=endState;fillColor=#000000;strokeColor=#ff0000;" parent="l9jkZKj2UulHnHtsVqsz-2" vertex="1">
          <mxGeometry x="100" y="330" width="30" height="30" as="geometry" />
        </mxCell>
        <mxCell id="l9jkZKj2UulHnHtsVqsz-3" value="sistem" style="swimlane;startSize=20;html=1;" parent="l9jkZKj2UulHnHtsVqsz-1" vertex="1">
          <mxGeometry x="240" y="20" width="240" height="400" as="geometry" />
        </mxCell>
        <mxCell id="l9jkZKj2UulHnHtsVqsz-12" value="menampilkan form" style="rounded=1;whiteSpace=wrap;html=1;arcSize=40;" parent="l9jkZKj2UulHnHtsVqsz-3" vertex="1">
          <mxGeometry x="59.999999999999545" y="90" width="120" height="40" as="geometry" />
        </mxCell>
        <mxCell id="l9jkZKj2UulHnHtsVqsz-15" value="kirim email konfirmasi akun" style="rounded=1;whiteSpace=wrap;html=1;arcSize=40;" parent="l9jkZKj2UulHnHtsVqsz-3" vertex="1">
          <mxGeometry x="59.999999999999545" y="170" width="120" height="40" as="geometry" />
        </mxCell>
        <mxCell id="l9jkZKj2UulHnHtsVqsz-22" style="edgeStyle=orthogonalEdgeStyle;rounded=0;orthogonalLoop=1;jettySize=auto;html=1;" parent="l9jkZKj2UulHnHtsVqsz-1" source="l9jkZKj2UulHnHtsVqsz-8" target="l9jkZKj2UulHnHtsVqsz-12" edge="1">
          <mxGeometry relative="1" as="geometry" />
        </mxCell>
        <mxCell id="l9jkZKj2UulHnHtsVqsz-23" value="" style="edgeStyle=orthogonalEdgeStyle;rounded=0;orthogonalLoop=1;jettySize=auto;html=1;entryX=0.5;entryY=0;entryDx=0;entryDy=0;" parent="l9jkZKj2UulHnHtsVqsz-1" source="l9jkZKj2UulHnHtsVqsz-12" target="l9jkZKj2UulHnHtsVqsz-13" edge="1">
          <mxGeometry relative="1" as="geometry">
            <Array as="points">
              <mxPoint x="360" y="170" />
              <mxPoint x="115" y="170" />
            </Array>
          </mxGeometry>
        </mxCell>
        <mxCell id="l9jkZKj2UulHnHtsVqsz-25" style="edgeStyle=orthogonalEdgeStyle;rounded=0;orthogonalLoop=1;jettySize=auto;html=1;entryX=0;entryY=0.5;entryDx=0;entryDy=0;" parent="l9jkZKj2UulHnHtsVqsz-1" source="l9jkZKj2UulHnHtsVqsz-13" target="l9jkZKj2UulHnHtsVqsz-15" edge="1">
          <mxGeometry relative="1" as="geometry" />
        </mxCell>
        <mxCell id="l9jkZKj2UulHnHtsVqsz-27" style="edgeStyle=orthogonalEdgeStyle;rounded=0;orthogonalLoop=1;jettySize=auto;html=1;entryX=0.5;entryY=0;entryDx=0;entryDy=0;" parent="l9jkZKj2UulHnHtsVqsz-1" source="l9jkZKj2UulHnHtsVqsz-15" target="l9jkZKj2UulHnHtsVqsz-17" edge="1">
          <mxGeometry relative="1" as="geometry">
            <Array as="points">
              <mxPoint x="360" y="250" />
              <mxPoint x="115" y="250" />
            </Array>
          </mxGeometry>
        </mxCell>
      </root>
    </mxGraphModel>
  </diagram>
</mxfile>
